# Blender 4.2.1 LTS
# www.blender.org
mtllib cylinder_tri.mtl
o cylinder
v 0.951057 -1.425313 -0.309017
v 0.809018 -1.425313 -0.587786
v 0.587786 -1.425313 -0.809017
v 0.309017 -1.425313 -0.951057
v 0.000000 -1.425313 -1.000000
v -0.309017 -1.425313 -0.951057
v -0.587785 -1.425313 -0.809017
v -0.809017 -1.425313 -0.587785
v -0.951057 -1.425313 -0.309017
v -1.000000 -1.425313 0.000000
v -0.951057 -1.425313 0.309017
v -0.809017 -1.425313 0.587785
v -0.587785 -1.425313 0.809017
v -0.309017 -1.425313 0.951057
v 0.000000 -1.425313 1.000000
v 0.309017 -1.425313 0.951057
v 0.587785 -1.425313 0.809017
v 0.809017 -1.425313 0.587785
v 0.951057 -1.425313 0.309017
v 1.000000 -1.425313 0.000000
v 0.951057 -1.140250 -0.309017
v 0.809018 -1.140250 -0.587786
v 0.587786 -1.140250 -0.809017
v 0.309017 -1.140250 -0.951057
v 0.000000 -1.140250 -1.000000
v -0.309017 -1.140250 -0.951057
v -0.587785 -1.140250 -0.809017
v -0.809017 -1.140250 -0.587785
v -0.951057 -1.140250 -0.309017
v -1.000000 -1.140250 0.000000
v -0.951057 -1.140250 0.309017
v -0.809017 -1.140250 0.587785
v -0.587785 -1.140250 0.809017
v -0.309017 -1.140250 0.951057
v 0.000000 -1.140250 1.000000
v 0.309017 -1.140250 0.951057
v 0.587785 -1.140250 0.809017
v 0.809017 -1.140250 0.587785
v 0.951057 -1.140250 0.309017
v 1.000000 -1.140250 0.000000
v 0.951057 -0.855187 -0.309017
v 0.809018 -0.855187 -0.587786
v 0.587786 -0.855187 -0.809017
v 0.309017 -0.855187 -0.951057
v 0.000000 -0.855187 -1.000000
v -0.309017 -0.855187 -0.951057
v -0.587785 -0.855187 -0.809017
v -0.809017 -0.855187 -0.587785
v -0.951057 -0.855187 -0.309017
v -1.000000 -0.855187 0.000000
v -0.951057 -0.855187 0.309017
v -0.809017 -0.855187 0.587785
v -0.587785 -0.855187 0.809017
v -0.309017 -0.855187 0.951057
v 0.000000 -0.855187 1.000000
v 0.309017 -0.855187 0.951057
v 0.587785 -0.855187 0.809017
v 0.809017 -0.855187 0.587785
v 0.951057 -0.855187 0.309017
v 1.000000 -0.855187 0.000000
v 0.951057 -0.570125 -0.309017
v 0.809018 -0.570125 -0.587786
v 0.587786 -0.570125 -0.809017
v 0.309017 -0.570125 -0.951057
v 0.000000 -0.570125 -1.000000
v -0.309017 -0.570125 -0.951057
v -0.587785 -0.570125 -0.809017
v -0.809017 -0.570125 -0.587785
v -0.951057 -0.570125 -0.309017
v -1.000000 -0.570125 0.000000
v -0.951057 -0.570125 0.309017
v -0.809017 -0.570125 0.587785
v -0.587785 -0.570125 0.809017
v -0.309017 -0.570125 0.951057
v 0.000000 -0.570125 1.000000
v 0.309017 -0.570125 0.951057
v 0.587785 -0.570125 0.809017
v 0.809017 -0.570125 0.587785
v 0.951057 -0.570125 0.309017
v 1.000000 -0.570125 0.000000
v 0.951057 -0.285062 -0.309017
v 0.809018 -0.285062 -0.587786
v 0.587786 -0.285062 -0.809017
v 0.309017 -0.285062 -0.951057
v 0.000000 -0.285062 -1.000000
v -0.309017 -0.285062 -0.951057
v -0.587785 -0.285062 -0.809017
v -0.809017 -0.285062 -0.587785
v -0.951057 -0.285062 -0.309017
v -1.000000 -0.285062 0.000000
v -0.951057 -0.285062 0.309017
v -0.809017 -0.285062 0.587785
v -0.587785 -0.285062 0.809017
v -0.309017 -0.285062 0.951057
v 0.000000 -0.285062 1.000000
v 0.309017 -0.285062 0.951057
v 0.587785 -0.285062 0.809017
v 0.809017 -0.285062 0.587785
v 0.951057 -0.285062 0.309017
v 1.000000 -0.285062 0.000000
v 0.951057 -0.000000 -0.309017
v 0.809018 -0.000000 -0.587786
v 0.587786 -0.000000 -0.809017
v 0.309017 -0.000000 -0.951057
v 0.000000 -0.000000 -1.000000
v -0.309017 -0.000000 -0.951057
v -0.587785 -0.000000 -0.809017
v -0.809017 -0.000000 -0.587785
v -0.951057 -0.000000 -0.309017
v -1.000000 0.000000 0.000000
v -0.951057 0.000000 0.309017
v -0.809017 0.000000 0.587785
v -0.587785 0.000000 0.809017
v -0.309017 0.000000 0.951057
v 0.000000 0.000000 1.000000
v 0.309017 0.000000 0.951057
v 0.587785 0.000000 0.809017
v 0.809017 0.000000 0.587785
v 0.951057 0.000000 0.309017
v 1.000000 0.000000 0.000000
v 0.951057 0.285062 -0.309017
v 0.809018 0.285062 -0.587786
v 0.587786 0.285062 -0.809017
v 0.309017 0.285062 -0.951057
v 0.000000 0.285062 -1.000000
v -0.309017 0.285062 -0.951057
v -0.587785 0.285062 -0.809017
v -0.809017 0.285062 -0.587785
v -0.951057 0.285062 -0.309017
v -1.000000 0.285062 -0.000000
v -0.951057 0.285062 0.309017
v -0.809017 0.285062 0.587785
v -0.587785 0.285062 0.809017
v -0.309017 0.285062 0.951057
v 0.000000 0.285062 1.000000
v 0.309017 0.285062 0.951057
v 0.587785 0.285062 0.809017
v 0.809017 0.285062 0.587785
v 0.951057 0.285062 0.309017
v 1.000000 0.285062 -0.000000
v 0.951057 0.570125 -0.309017
v 0.809018 0.570125 -0.587786
v 0.587786 0.570125 -0.809017
v 0.309017 0.570125 -0.951057
v 0.000000 0.570125 -1.000000
v -0.309017 0.570125 -0.951057
v -0.587785 0.570125 -0.809017
v -0.809017 0.570125 -0.587785
v -0.951057 0.570125 -0.309017
v -1.000000 0.570125 -0.000000
v -0.951057 0.570125 0.309017
v -0.809017 0.570125 0.587785
v -0.587785 0.570125 0.809017
v -0.309017 0.570125 0.951057
v 0.000000 0.570125 1.000000
v 0.309017 0.570125 0.951057
v 0.587785 0.570125 0.809017
v 0.809017 0.570125 0.587785
v 0.951057 0.570125 0.309017
v 1.000000 0.570125 -0.000000
v 0.951057 0.855187 -0.309017
v 0.809018 0.855187 -0.587786
v 0.587786 0.855187 -0.809017
v 0.309017 0.855187 -0.951057
v 0.000000 0.855187 -1.000000
v -0.309017 0.855187 -0.951057
v -0.587785 0.855187 -0.809017
v -0.809017 0.855187 -0.587785
v -0.951057 0.855187 -0.309017
v -1.000000 0.855187 -0.000000
v -0.951057 0.855187 0.309017
v -0.809017 0.855187 0.587785
v -0.587785 0.855187 0.809017
v -0.309017 0.855187 0.951057
v 0.000000 0.855187 1.000000
v 0.309017 0.855187 0.951057
v 0.587785 0.855187 0.809017
v 0.809017 0.855187 0.587785
v 0.951057 0.855187 0.309017
v 1.000000 0.855187 -0.000000
v 0.951057 1.140250 -0.309017
v 0.809018 1.140250 -0.587786
v 0.587786 1.140250 -0.809017
v 0.309017 1.140250 -0.951057
v 0.000000 1.140250 -1.000000
v -0.309017 1.140250 -0.951057
v -0.587785 1.140250 -0.809017
v -0.809017 1.140250 -0.587785
v -0.951057 1.140250 -0.309017
v -1.000000 1.140250 -0.000000
v -0.951057 1.140250 0.309017
v -0.809017 1.140250 0.587785
v -0.587785 1.140250 0.809017
v -0.309017 1.140250 0.951057
v 0.000000 1.140250 1.000000
v 0.309017 1.140250 0.951057
v 0.587785 1.140250 0.809017
v 0.809017 1.140250 0.587785
v 0.951057 1.140250 0.309017
v 1.000000 1.140250 -0.000000
v 0.951057 1.425313 -0.309017
v 0.809018 1.425313 -0.587786
v 0.587786 1.425313 -0.809017
v 0.309017 1.425313 -0.951057
v 0.000000 1.425313 -1.000000
v -0.309017 1.425313 -0.951057
v -0.587785 1.425313 -0.809017
v -0.809017 1.425313 -0.587785
v -0.951057 1.425313 -0.309017
v -1.000000 1.425313 -0.000000
v -0.951057 1.425313 0.309017
v -0.809017 1.425313 0.587785
v -0.587785 1.425313 0.809017
v -0.309017 1.425313 0.951057
v 0.000000 1.425313 1.000000
v 0.309017 1.425313 0.951057
v 0.587785 1.425313 0.809017
v 0.809017 1.425313 0.587785
v 0.951057 1.425313 0.309017
v 1.000000 1.425313 -0.000000
vn 0.8090 -0.0000 -0.5878
vn 0.9511 -0.0000 -0.3090
vn 0.5878 -0.0000 -0.8090
vn 0.3090 -0.0000 -0.9511
vn -0.0000 -0.0000 -1.0000
vn -0.3090 -0.0000 -0.9511
vn -0.5878 -0.0000 -0.8090
vn -0.8090 -0.0000 -0.5878
vn -0.9511 -0.0000 -0.3090
vn -1.0000 -0.0000 -0.0000
vn -0.9511 -0.0000 0.3090
vn -0.8090 -0.0000 0.5878
vn -0.5878 -0.0000 0.8090
vn -0.3090 -0.0000 0.9511
vn -0.0000 -0.0000 1.0000
vn 0.3090 -0.0000 0.9511
vn 0.5878 -0.0000 0.8090
vn 0.8090 -0.0000 0.5878
vn 0.9511 -0.0000 0.3090
vn 1.0000 -0.0000 -0.0000
vn -0.0000 -1.0000 -0.0000
vn -0.0000 1.0000 -0.0000
vt 0.387500 0.312500
vt 0.375000 0.350094
vt 0.375000 0.312500
vt 0.400000 0.312500
vt 0.387500 0.350094
vt 0.412500 0.312500
vt 0.400000 0.350094
vt 0.425000 0.312500
vt 0.412500 0.350094
vt 0.437500 0.312500
vt 0.425000 0.350094
vt 0.450000 0.312500
vt 0.437500 0.350094
vt 0.462500 0.312500
vt 0.450000 0.350094
vt 0.475000 0.312500
vt 0.462500 0.350094
vt 0.487500 0.312500
vt 0.475000 0.350094
vt 0.500000 0.312500
vt 0.487500 0.350094
vt 0.512500 0.312500
vt 0.500000 0.350094
vt 0.525000 0.312500
vt 0.512500 0.350094
vt 0.537500 0.312500
vt 0.525000 0.350094
vt 0.550000 0.312500
vt 0.537500 0.350094
vt 0.562500 0.312500
vt 0.550000 0.350094
vt 0.575000 0.312500
vt 0.562500 0.350094
vt 0.587500 0.312500
vt 0.575000 0.350094
vt 0.600000 0.312500
vt 0.587500 0.350094
vt 0.612500 0.312500
vt 0.600000 0.350094
vt 0.625000 0.312500
vt 0.612500 0.350094
vt 0.375000 0.387688
vt 0.387500 0.387688
vt 0.400000 0.387688
vt 0.412500 0.387688
vt 0.425000 0.387688
vt 0.437500 0.387688
vt 0.450000 0.387688
vt 0.462500 0.387688
vt 0.475000 0.387688
vt 0.487500 0.387688
vt 0.500000 0.387688
vt 0.512500 0.387688
vt 0.525000 0.387688
vt 0.537500 0.387688
vt 0.550000 0.387688
vt 0.562500 0.387688
vt 0.575000 0.387688
vt 0.587500 0.387688
vt 0.600000 0.387688
vt 0.625000 0.350094
vt 0.612500 0.387688
vt 0.375000 0.425282
vt 0.387500 0.425282
vt 0.400000 0.425282
vt 0.412500 0.425282
vt 0.425000 0.425282
vt 0.437500 0.425282
vt 0.450000 0.425282
vt 0.462500 0.425282
vt 0.475000 0.425282
vt 0.487500 0.425282
vt 0.500000 0.425282
vt 0.512500 0.425282
vt 0.525000 0.425282
vt 0.537500 0.425282
vt 0.550000 0.425282
vt 0.562500 0.425282
vt 0.575000 0.425282
vt 0.587500 0.425282
vt 0.600000 0.425282
vt 0.625000 0.387688
vt 0.612500 0.425282
vt 0.375000 0.462876
vt 0.387500 0.462876
vt 0.400000 0.462876
vt 0.412500 0.462876
vt 0.425000 0.462876
vt 0.437500 0.462876
vt 0.450000 0.462876
vt 0.462500 0.462876
vt 0.475000 0.462876
vt 0.487500 0.462876
vt 0.500000 0.462876
vt 0.512500 0.462876
vt 0.525000 0.462876
vt 0.537500 0.462876
vt 0.550000 0.462876
vt 0.562500 0.462876
vt 0.575000 0.462876
vt 0.587500 0.462876
vt 0.600000 0.462876
vt 0.625000 0.425282
vt 0.612500 0.462876
vt 0.375000 0.500470
vt 0.387500 0.500470
vt 0.400000 0.500470
vt 0.412500 0.500470
vt 0.425000 0.500470
vt 0.437500 0.500470
vt 0.450000 0.500470
vt 0.462500 0.500470
vt 0.475000 0.500470
vt 0.487500 0.500470
vt 0.500000 0.500470
vt 0.512500 0.500470
vt 0.525000 0.500470
vt 0.537500 0.500470
vt 0.550000 0.500470
vt 0.562500 0.500470
vt 0.575000 0.500470
vt 0.587500 0.500470
vt 0.600000 0.500470
vt 0.625000 0.462876
vt 0.612500 0.500470
vt 0.375000 0.538064
vt 0.387500 0.538064
vt 0.400000 0.538064
vt 0.412500 0.538064
vt 0.425000 0.538064
vt 0.437500 0.538064
vt 0.450000 0.538064
vt 0.462500 0.538064
vt 0.475000 0.538064
vt 0.487500 0.538064
vt 0.500000 0.538064
vt 0.512500 0.538064
vt 0.525000 0.538064
vt 0.537500 0.538064
vt 0.550000 0.538064
vt 0.562500 0.538064
vt 0.575000 0.538064
vt 0.587500 0.538064
vt 0.600000 0.538064
vt 0.625000 0.500470
vt 0.612500 0.538064
vt 0.375000 0.575658
vt 0.387500 0.575658
vt 0.400000 0.575658
vt 0.412500 0.575658
vt 0.425000 0.575658
vt 0.437500 0.575658
vt 0.450000 0.575658
vt 0.462500 0.575658
vt 0.475000 0.575658
vt 0.487500 0.575658
vt 0.500000 0.575658
vt 0.512500 0.575658
vt 0.525000 0.575658
vt 0.537500 0.575658
vt 0.550000 0.575658
vt 0.562500 0.575658
vt 0.575000 0.575658
vt 0.587500 0.575658
vt 0.600000 0.575658
vt 0.625000 0.538064
vt 0.612500 0.575658
vt 0.375000 0.613252
vt 0.387500 0.613252
vt 0.400000 0.613252
vt 0.412500 0.613252
vt 0.425000 0.613252
vt 0.437500 0.613252
vt 0.450000 0.613252
vt 0.462500 0.613252
vt 0.475000 0.613252
vt 0.487500 0.613252
vt 0.500000 0.613252
vt 0.512500 0.613252
vt 0.525000 0.613252
vt 0.537500 0.613252
vt 0.550000 0.613252
vt 0.562500 0.613252
vt 0.575000 0.613252
vt 0.587500 0.613252
vt 0.600000 0.613252
vt 0.625000 0.575658
vt 0.612500 0.613252
vt 0.375000 0.650846
vt 0.387500 0.650846
vt 0.400000 0.650846
vt 0.412500 0.650846
vt 0.425000 0.650846
vt 0.437500 0.650846
vt 0.450000 0.650846
vt 0.462500 0.650846
vt 0.475000 0.650846
vt 0.487500 0.650846
vt 0.500000 0.650846
vt 0.512500 0.650846
vt 0.525000 0.650846
vt 0.537500 0.650846
vt 0.550000 0.650846
vt 0.562500 0.650846
vt 0.575000 0.650846
vt 0.587500 0.650846
vt 0.600000 0.650846
vt 0.625000 0.613252
vt 0.612500 0.650846
vt 0.375000 0.688440
vt 0.387500 0.688440
vt 0.400000 0.688440
vt 0.412500 0.688440
vt 0.425000 0.688440
vt 0.437500 0.688440
vt 0.450000 0.688440
vt 0.462500 0.688440
vt 0.475000 0.688440
vt 0.487500 0.688440
vt 0.500000 0.688440
vt 0.512500 0.688440
vt 0.525000 0.688440
vt 0.537500 0.688440
vt 0.550000 0.688440
vt 0.562500 0.688440
vt 0.575000 0.688440
vt 0.587500 0.688440
vt 0.600000 0.688440
vt 0.625000 0.650846
vt 0.612500 0.688440
vt 0.626409 0.248091
vt 0.451716 0.304853
vt 0.451716 0.007647
vt 0.373591 0.935591
vt 0.373591 0.751909
vt 0.548284 0.695147
vt 0.625000 0.688440
vt 0.626409 0.064408
vt 0.648603 0.107966
vt 0.656250 0.156250
vt 0.648603 0.204534
vt 0.591841 0.282659
vt 0.548284 0.304853
vt 0.408159 0.282659
vt 0.343750 0.156250
vt 0.373591 0.248091
vt 0.351397 0.204534
vt 0.351397 0.107966
vt 0.373591 0.064409
vt 0.408159 0.029841
vt 0.500000 -0.000000
vt 0.548284 0.007647
vt 0.591842 0.029841
vt 0.656250 0.843750
vt 0.648603 0.892034
vt 0.626409 0.935591
vt 0.591841 0.970159
vt 0.548284 0.992353
vt 0.500000 1.000000
vt 0.451716 0.992353
vt 0.408159 0.970159
vt 0.351397 0.892034
vt 0.343750 0.843750
vt 0.351397 0.795466
vt 0.408159 0.717341
vt 0.451716 0.695147
vt 0.500000 0.687500
vt 0.591842 0.717341
vt 0.626409 0.751908
vt 0.648603 0.795466
s 1
usemtl initialShadingGroup
f 2/1/1 21/2/2 1/3/2
f 3/4/3 22/5/1 2/1/1
f 4/6/4 23/7/3 3/4/3
f 5/8/5 24/9/4 4/6/4
f 6/10/6 25/11/5 5/8/5
f 7/12/7 26/13/6 6/10/6
f 8/14/8 27/15/7 7/12/7
f 9/16/9 28/17/8 8/14/8
f 10/18/10 29/19/9 9/16/9
f 11/20/11 30/21/10 10/18/10
f 12/22/12 31/23/11 11/20/11
f 13/24/13 32/25/12 12/22/12
f 14/26/14 33/27/13 13/24/13
f 15/28/15 34/29/14 14/26/14
f 16/30/16 35/31/15 15/28/15
f 17/32/17 36/33/16 16/30/16
f 18/34/18 37/35/17 17/32/17
f 19/36/19 38/37/18 18/34/18
f 20/38/20 39/39/19 19/36/19
f 1/40/2 40/41/20 20/38/20
f 22/5/1 41/42/2 21/2/2
f 23/7/3 42/43/1 22/5/1
f 24/9/4 43/44/3 23/7/3
f 25/11/5 44/45/4 24/9/4
f 26/13/6 45/46/5 25/11/5
f 27/15/7 46/47/6 26/13/6
f 28/17/8 47/48/7 27/15/7
f 29/19/9 48/49/8 28/17/8
f 30/21/10 49/50/9 29/19/9
f 31/23/11 50/51/10 30/21/10
f 32/25/12 51/52/11 31/23/11
f 33/27/13 52/53/12 32/25/12
f 34/29/14 53/54/13 33/27/13
f 35/31/15 54/55/14 34/29/14
f 36/33/16 55/56/15 35/31/15
f 37/35/17 56/57/16 36/33/16
f 38/37/18 57/58/17 37/35/17
f 39/39/19 58/59/18 38/37/18
f 40/41/20 59/60/19 39/39/19
f 21/61/2 60/62/20 40/41/20
f 42/43/1 61/63/2 41/42/2
f 43/44/3 62/64/1 42/43/1
f 44/45/4 63/65/3 43/44/3
f 45/46/5 64/66/4 44/45/4
f 46/47/6 65/67/5 45/46/5
f 47/48/7 66/68/6 46/47/6
f 48/49/8 67/69/7 47/48/7
f 49/50/9 68/70/8 48/49/8
f 50/51/10 69/71/9 49/50/9
f 51/52/11 70/72/10 50/51/10
f 52/53/12 71/73/11 51/52/11
f 53/54/13 72/74/12 52/53/12
f 54/55/14 73/75/13 53/54/13
f 55/56/15 74/76/14 54/55/14
f 56/57/16 75/77/15 55/56/15
f 57/58/17 76/78/16 56/57/16
f 58/59/18 77/79/17 57/58/17
f 59/60/19 78/80/18 58/59/18
f 60/62/20 79/81/19 59/60/19
f 41/82/2 80/83/20 60/62/20
f 62/64/1 81/84/2 61/63/2
f 63/65/3 82/85/1 62/64/1
f 64/66/4 83/86/3 63/65/3
f 65/67/5 84/87/4 64/66/4
f 66/68/6 85/88/5 65/67/5
f 67/69/7 86/89/6 66/68/6
f 68/70/8 87/90/7 67/69/7
f 69/71/9 88/91/8 68/70/8
f 70/72/10 89/92/9 69/71/9
f 71/73/11 90/93/10 70/72/10
f 72/74/12 91/94/11 71/73/11
f 73/75/13 92/95/12 72/74/12
f 74/76/14 93/96/13 73/75/13
f 75/77/15 94/97/14 74/76/14
f 76/78/16 95/98/15 75/77/15
f 77/79/17 96/99/16 76/78/16
f 78/80/18 97/100/17 77/79/17
f 79/81/19 98/101/18 78/80/18
f 80/83/20 99/102/19 79/81/19
f 61/103/2 100/104/20 80/83/20
f 82/85/1 101/105/2 81/84/2
f 83/86/3 102/106/1 82/85/1
f 84/87/4 103/107/3 83/86/3
f 85/88/5 104/108/4 84/87/4
f 86/89/6 105/109/5 85/88/5
f 87/90/7 106/110/6 86/89/6
f 88/91/8 107/111/7 87/90/7
f 89/92/9 108/112/8 88/91/8
f 90/93/10 109/113/9 89/92/9
f 91/94/11 110/114/10 90/93/10
f 92/95/12 111/115/11 91/94/11
f 93/96/13 112/116/12 92/95/12
f 94/97/14 113/117/13 93/96/13
f 95/98/15 114/118/14 94/97/14
f 96/99/16 115/119/15 95/98/15
f 97/100/17 116/120/16 96/99/16
f 98/101/18 117/121/17 97/100/17
f 99/102/19 118/122/18 98/101/18
f 100/104/20 119/123/19 99/102/19
f 81/124/2 120/125/20 100/104/20
f 102/106/1 121/126/2 101/105/2
f 103/107/3 122/127/1 102/106/1
f 104/108/4 123/128/3 103/107/3
f 105/109/5 124/129/4 104/108/4
f 106/110/6 125/130/5 105/109/5
f 107/111/7 126/131/6 106/110/6
f 108/112/8 127/132/7 107/111/7
f 109/113/9 128/133/8 108/112/8
f 110/114/10 129/134/9 109/113/9
f 111/115/11 130/135/10 110/114/10
f 112/116/12 131/136/11 111/115/11
f 113/117/13 132/137/12 112/116/12
f 114/118/14 133/138/13 113/117/13
f 115/119/15 134/139/14 114/118/14
f 116/120/16 135/140/15 115/119/15
f 117/121/17 136/141/16 116/120/16
f 118/122/18 137/142/17 117/121/17
f 119/123/19 138/143/18 118/122/18
f 120/125/20 139/144/19 119/123/19
f 101/145/2 140/146/20 120/125/20
f 122/127/1 141/147/2 121/126/2
f 123/128/3 142/148/1 122/127/1
f 124/129/4 143/149/3 123/128/3
f 125/130/5 144/150/4 124/129/4
f 126/131/6 145/151/5 125/130/5
f 127/132/7 146/152/6 126/131/6
f 128/133/8 147/153/7 127/132/7
f 129/134/9 148/154/8 128/133/8
f 130/135/10 149/155/9 129/134/9
f 131/136/11 150/156/10 130/135/10
f 132/137/12 151/157/11 131/136/11
f 133/138/13 152/158/12 132/137/12
f 134/139/14 153/159/13 133/138/13
f 135/140/15 154/160/14 134/139/14
f 136/141/16 155/161/15 135/140/15
f 137/142/17 156/162/16 136/141/16
f 138/143/18 157/163/17 137/142/17
f 139/144/19 158/164/18 138/143/18
f 140/146/20 159/165/19 139/144/19
f 121/166/2 160/167/20 140/146/20
f 142/148/1 161/168/2 141/147/2
f 143/149/3 162/169/1 142/148/1
f 144/150/4 163/170/3 143/149/3
f 145/151/5 164/171/4 144/150/4
f 146/152/6 165/172/5 145/151/5
f 147/153/7 166/173/6 146/152/6
f 148/154/8 167/174/7 147/153/7
f 149/155/9 168/175/8 148/154/8
f 150/156/10 169/176/9 149/155/9
f 151/157/11 170/177/10 150/156/10
f 152/158/12 171/178/11 151/157/11
f 153/159/13 172/179/12 152/158/12
f 154/160/14 173/180/13 153/159/13
f 155/161/15 174/181/14 154/160/14
f 156/162/16 175/182/15 155/161/15
f 157/163/17 176/183/16 156/162/16
f 158/164/18 177/184/17 157/163/17
f 159/165/19 178/185/18 158/164/18
f 160/167/20 179/186/19 159/165/19
f 141/187/2 180/188/20 160/167/20
f 162/169/1 181/189/2 161/168/2
f 163/170/3 182/190/1 162/169/1
f 164/171/4 183/191/3 163/170/3
f 165/172/5 184/192/4 164/171/4
f 166/173/6 185/193/5 165/172/5
f 167/174/7 186/194/6 166/173/6
f 168/175/8 187/195/7 167/174/7
f 169/176/9 188/196/8 168/175/8
f 170/177/10 189/197/9 169/176/9
f 171/178/11 190/198/10 170/177/10
f 172/179/12 191/199/11 171/178/11
f 173/180/13 192/200/12 172/179/12
f 174/181/14 193/201/13 173/180/13
f 175/182/15 194/202/14 174/181/14
f 176/183/16 195/203/15 175/182/15
f 177/184/17 196/204/16 176/183/16
f 178/185/18 197/205/17 177/184/17
f 179/186/19 198/206/18 178/185/18
f 180/188/20 199/207/19 179/186/19
f 161/208/2 200/209/20 180/188/20
f 182/190/1 201/210/2 181/189/2
f 183/191/3 202/211/1 182/190/1
f 184/192/4 203/212/3 183/191/3
f 185/193/5 204/213/4 184/192/4
f 186/194/6 205/214/5 185/193/5
f 187/195/7 206/215/6 186/194/6
f 188/196/8 207/216/7 187/195/7
f 189/197/9 208/217/8 188/196/8
f 190/198/10 209/218/9 189/197/9
f 191/199/11 210/219/10 190/198/10
f 192/200/12 211/220/11 191/199/11
f 193/201/13 212/221/12 192/200/12
f 194/202/14 213/222/13 193/201/13
f 195/203/15 214/223/14 194/202/14
f 196/204/16 215/224/15 195/203/15
f 197/205/17 216/225/16 196/204/16
f 198/206/18 217/226/17 197/205/17
f 199/207/19 218/227/18 198/206/18
f 200/209/20 219/228/19 199/207/19
f 181/229/2 220/230/20 200/209/20
s 0
f 18/231/21 14/232/21 6/233/21
f 208/234/22 212/235/22 216/236/22
s 1
f 2/1/1 22/5/1 21/2/2
f 3/4/3 23/7/3 22/5/1
f 4/6/4 24/9/4 23/7/3
f 5/8/5 25/11/5 24/9/4
f 6/10/6 26/13/6 25/11/5
f 7/12/7 27/15/7 26/13/6
f 8/14/8 28/17/8 27/15/7
f 9/16/9 29/19/9 28/17/8
f 10/18/10 30/21/10 29/19/9
f 11/20/11 31/23/11 30/21/10
f 12/22/12 32/25/12 31/23/11
f 13/24/13 33/27/13 32/25/12
f 14/26/14 34/29/14 33/27/13
f 15/28/15 35/31/15 34/29/14
f 16/30/16 36/33/16 35/31/15
f 17/32/17 37/35/17 36/33/16
f 18/34/18 38/37/18 37/35/17
f 19/36/19 39/39/19 38/37/18
f 20/38/20 40/41/20 39/39/19
f 1/40/2 21/61/2 40/41/20
f 22/5/1 42/43/1 41/42/2
f 23/7/3 43/44/3 42/43/1
f 24/9/4 44/45/4 43/44/3
f 25/11/5 45/46/5 44/45/4
f 26/13/6 46/47/6 45/46/5
f 27/15/7 47/48/7 46/47/6
f 28/17/8 48/49/8 47/48/7
f 29/19/9 49/50/9 48/49/8
f 30/21/10 50/51/10 49/50/9
f 31/23/11 51/52/11 50/51/10
f 32/25/12 52/53/12 51/52/11
f 33/27/13 53/54/13 52/53/12
f 34/29/14 54/55/14 53/54/13
f 35/31/15 55/56/15 54/55/14
f 36/33/16 56/57/16 55/56/15
f 37/35/17 57/58/17 56/57/16
f 38/37/18 58/59/18 57/58/17
f 39/39/19 59/60/19 58/59/18
f 40/41/20 60/62/20 59/60/19
f 21/61/2 41/82/2 60/62/20
f 42/43/1 62/64/1 61/63/2
f 43/44/3 63/65/3 62/64/1
f 44/45/4 64/66/4 63/65/3
f 45/46/5 65/67/5 64/66/4
f 46/47/6 66/68/6 65/67/5
f 47/48/7 67/69/7 66/68/6
f 48/49/8 68/70/8 67/69/7
f 49/50/9 69/71/9 68/70/8
f 50/51/10 70/72/10 69/71/9
f 51/52/11 71/73/11 70/72/10
f 52/53/12 72/74/12 71/73/11
f 53/54/13 73/75/13 72/74/12
f 54/55/14 74/76/14 73/75/13
f 55/56/15 75/77/15 74/76/14
f 56/57/16 76/78/16 75/77/15
f 57/58/17 77/79/17 76/78/16
f 58/59/18 78/80/18 77/79/17
f 59/60/19 79/81/19 78/80/18
f 60/62/20 80/83/20 79/81/19
f 41/82/2 61/103/2 80/83/20
f 62/64/1 82/85/1 81/84/2
f 63/65/3 83/86/3 82/85/1
f 64/66/4 84/87/4 83/86/3
f 65/67/5 85/88/5 84/87/4
f 66/68/6 86/89/6 85/88/5
f 67/69/7 87/90/7 86/89/6
f 68/70/8 88/91/8 87/90/7
f 69/71/9 89/92/9 88/91/8
f 70/72/10 90/93/10 89/92/9
f 71/73/11 91/94/11 90/93/10
f 72/74/12 92/95/12 91/94/11
f 73/75/13 93/96/13 92/95/12
f 74/76/14 94/97/14 93/96/13
f 75/77/15 95/98/15 94/97/14
f 76/78/16 96/99/16 95/98/15
f 77/79/17 97/100/17 96/99/16
f 78/80/18 98/101/18 97/100/17
f 79/81/19 99/102/19 98/101/18
f 80/83/20 100/104/20 99/102/19
f 61/103/2 81/124/2 100/104/20
f 82/85/1 102/106/1 101/105/2
f 83/86/3 103/107/3 102/106/1
f 84/87/4 104/108/4 103/107/3
f 85/88/5 105/109/5 104/108/4
f 86/89/6 106/110/6 105/109/5
f 87/90/7 107/111/7 106/110/6
f 88/91/8 108/112/8 107/111/7
f 89/92/9 109/113/9 108/112/8
f 90/93/10 110/114/10 109/113/9
f 91/94/11 111/115/11 110/114/10
f 92/95/12 112/116/12 111/115/11
f 93/96/13 113/117/13 112/116/12
f 94/97/14 114/118/14 113/117/13
f 95/98/15 115/119/15 114/118/14
f 96/99/16 116/120/16 115/119/15
f 97/100/17 117/121/17 116/120/16
f 98/101/18 118/122/18 117/121/17
f 99/102/19 119/123/19 118/122/18
f 100/104/20 120/125/20 119/123/19
f 81/124/2 101/145/2 120/125/20
f 102/106/1 122/127/1 121/126/2
f 103/107/3 123/128/3 122/127/1
f 104/108/4 124/129/4 123/128/3
f 105/109/5 125/130/5 124/129/4
f 106/110/6 126/131/6 125/130/5
f 107/111/7 127/132/7 126/131/6
f 108/112/8 128/133/8 127/132/7
f 109/113/9 129/134/9 128/133/8
f 110/114/10 130/135/10 129/134/9
f 111/115/11 131/136/11 130/135/10
f 112/116/12 132/137/12 131/136/11
f 113/117/13 133/138/13 132/137/12
f 114/118/14 134/139/14 133/138/13
f 115/119/15 135/140/15 134/139/14
f 116/120/16 136/141/16 135/140/15
f 117/121/17 137/142/17 136/141/16
f 118/122/18 138/143/18 137/142/17
f 119/123/19 139/144/19 138/143/18
f 120/125/20 140/146/20 139/144/19
f 101/145/2 121/166/2 140/146/20
f 122/127/1 142/148/1 141/147/2
f 123/128/3 143/149/3 142/148/1
f 124/129/4 144/150/4 143/149/3
f 125/130/5 145/151/5 144/150/4
f 126/131/6 146/152/6 145/151/5
f 127/132/7 147/153/7 146/152/6
f 128/133/8 148/154/8 147/153/7
f 129/134/9 149/155/9 148/154/8
f 130/135/10 150/156/10 149/155/9
f 131/136/11 151/157/11 150/156/10
f 132/137/12 152/158/12 151/157/11
f 133/138/13 153/159/13 152/158/12
f 134/139/14 154/160/14 153/159/13
f 135/140/15 155/161/15 154/160/14
f 136/141/16 156/162/16 155/161/15
f 137/142/17 157/163/17 156/162/16
f 138/143/18 158/164/18 157/163/17
f 139/144/19 159/165/19 158/164/18
f 140/146/20 160/167/20 159/165/19
f 121/166/2 141/187/2 160/167/20
f 142/148/1 162/169/1 161/168/2
f 143/149/3 163/170/3 162/169/1
f 144/150/4 164/171/4 163/170/3
f 145/151/5 165/172/5 164/171/4
f 146/152/6 166/173/6 165/172/5
f 147/153/7 167/174/7 166/173/6
f 148/154/8 168/175/8 167/174/7
f 149/155/9 169/176/9 168/175/8
f 150/156/10 170/177/10 169/176/9
f 151/157/11 171/178/11 170/177/10
f 152/158/12 172/179/12 171/178/11
f 153/159/13 173/180/13 172/179/12
f 154/160/14 174/181/14 173/180/13
f 155/161/15 175/182/15 174/181/14
f 156/162/16 176/183/16 175/182/15
f 157/163/17 177/184/17 176/183/16
f 158/164/18 178/185/18 177/184/17
f 159/165/19 179/186/19 178/185/18
f 160/167/20 180/188/20 179/186/19
f 141/187/2 161/208/2 180/188/20
f 162/169/1 182/190/1 181/189/2
f 163/170/3 183/191/3 182/190/1
f 164/171/4 184/192/4 183/191/3
f 165/172/5 185/193/5 184/192/4
f 166/173/6 186/194/6 185/193/5
f 167/174/7 187/195/7 186/194/6
f 168/175/8 188/196/8 187/195/7
f 169/176/9 189/197/9 188/196/8
f 170/177/10 190/198/10 189/197/9
f 171/178/11 191/199/11 190/198/10
f 172/179/12 192/200/12 191/199/11
f 173/180/13 193/201/13 192/200/12
f 174/181/14 194/202/14 193/201/13
f 175/182/15 195/203/15 194/202/14
f 176/183/16 196/204/16 195/203/15
f 177/184/17 197/205/17 196/204/16
f 178/185/18 198/206/18 197/205/17
f 179/186/19 199/207/19 198/206/18
f 180/188/20 200/209/20 199/207/19
f 161/208/2 181/229/2 200/209/20
f 182/190/1 202/211/1 201/210/2
f 183/191/3 203/212/3 202/211/1
f 184/192/4 204/213/4 203/212/3
f 185/193/5 205/214/5 204/213/4
f 186/194/6 206/215/6 205/214/5
f 187/195/7 207/216/7 206/215/6
f 188/196/8 208/217/8 207/216/7
f 189/197/9 209/218/9 208/217/8
f 190/198/10 210/219/10 209/218/9
f 191/199/11 211/220/11 210/219/10
f 192/200/12 212/221/12 211/220/11
f 193/201/13 213/222/13 212/221/12
f 194/202/14 214/223/14 213/222/13
f 195/203/15 215/224/15 214/223/14
f 196/204/16 216/225/16 215/224/15
f 197/205/17 217/226/17 216/225/16
f 198/206/18 218/227/18 217/226/17
f 199/207/19 219/228/19 218/227/18
f 200/209/20 220/230/20 219/228/19
f 181/229/2 201/237/2 220/230/20
s 0
f 2/238/21 1/239/21 18/231/21
f 1/239/21 20/240/21 18/231/21
f 20/240/21 19/241/21 18/231/21
f 18/231/21 17/242/21 16/243/21
f 16/243/21 15/20/21 18/231/21
f 15/20/21 14/232/21 18/231/21
f 14/232/21 13/244/21 10/245/21
f 13/244/21 12/246/21 10/245/21
f 12/246/21 11/247/21 10/245/21
f 10/245/21 9/248/21 8/249/21
f 8/249/21 7/250/21 6/233/21
f 6/233/21 5/251/21 2/238/21
f 5/251/21 4/252/21 2/238/21
f 4/252/21 3/253/21 2/238/21
f 10/245/21 8/249/21 14/232/21
f 8/249/21 6/233/21 14/232/21
f 2/238/21 18/231/21 6/233/21
f 220/254/22 201/255/22 202/256/22
f 202/256/22 203/257/22 220/254/22
f 203/257/22 204/258/22 220/254/22
f 204/258/22 205/259/22 208/234/22
f 205/259/22 206/260/22 208/234/22
f 206/260/22 207/261/22 208/234/22
f 208/234/22 209/262/22 210/263/22
f 210/263/22 211/264/22 212/235/22
f 212/235/22 213/265/22 214/266/22
f 214/266/22 215/267/22 212/235/22
f 215/267/22 216/236/22 212/235/22
f 216/236/22 217/268/22 218/269/22
f 218/269/22 219/270/22 220/254/22
f 208/234/22 210/263/22 212/235/22
f 216/236/22 218/269/22 208/234/22
f 218/269/22 220/254/22 208/234/22
f 220/254/22 204/258/22 208/234/22
